<svg width="117" height="28" viewBox="0 0 117 28" fill="none" xmlns="http://www.w3.org/2000/svg">
<path d="M57.669 4.72709C62.2292 5.31 63.221 10.782 67.883 10.774C70.2993 10.7701 71.7337 9.35591 71.7337 7.36151C71.7337 3.02878 66.0385 0 59.6484 0C51.3313 0 46.0067 5.86638 46.0067 13.5731C46.0067 21.0873 51.6195 27.9509 60.0995 27.9509C68.1285 27.9509 71.6512 23.0817 71.6512 18.174C71.6512 16.8701 70.0538 16.5634 69.235 17.4451C68.0476 18.7105 66.4485 20.8961 62.9258 20.8961C58.461 20.8961 54.0512 16.1796 54.1182 8.74246C54.1504 5.2184 56.405 4.56508 57.669 4.72709Z" fill="black"/>
<path d="M102.267 0.0119623C93.5828 0.0119623 87.8055 5.72429 87.8055 14.1972C87.8055 22.7086 94.8514 28 102.267 28C110.296 28 116.81 22.7086 116.81 14.1972C116.811 5.6858 109.887 0.0119623 102.267 0.0119623ZM104.567 24.148C100.594 24.148 96.2759 14.4389 96.2759 8.01479C96.2759 5.19982 97.3171 3.864 99.3999 3.864C103.411 3.864 107.768 14.6553 107.768 20.1061C107.768 22.8494 106.727 24.148 104.567 24.148Z" fill="black"/>
<path d="M29.742 0.34528H22.9417C22.3274 0.34528 21.9173 0.652009 21.9173 1.14995V1.30265C21.9173 1.65054 22.1472 1.94665 22.4508 2.23744L22.4522 2.23877C22.4877 2.2733 22.5246 2.30649 22.5615 2.34101C22.7658 2.55346 23.1574 3.07929 22.8722 3.78835C22.8722 3.78835 22.8736 3.78835 22.8736 3.78968L17.444 14.7337L12.4541 4.94488C12.4286 4.8838 12.4072 4.8254 12.3888 4.76695L12.1959 4.30751H12.2001L11.9845 3.79101C11.9845 3.79101 11.9859 3.79101 11.9859 3.78968C11.7007 3.08062 12.0923 2.55479 12.2966 2.34234C12.3335 2.30782 12.3704 2.27462 12.4059 2.2401L12.4073 2.23877C12.7109 1.94798 12.9407 1.65187 12.9407 1.30397V1.15127C12.9407 0.653338 12.5307 0.346609 11.9164 0.346609H1.02436C0.410029 0.346609 0 0.653338 0 1.15127V1.30397C0 1.60805 0.0978959 1.85901 0.258218 2.09935L12.7818 25.6538C12.8215 25.7321 12.8613 25.8065 12.9024 25.8795L12.9379 25.9472C12.9379 25.9472 12.9365 25.9432 12.9365 25.9406C13.5678 27.0334 14.4021 27.5672 15.7712 27.5672C17.4099 27.5672 18.3931 26.9152 19.0486 25.4201L30.5563 1.99843C30.6868 1.79395 30.7649 1.57485 30.7649 1.30397V1.15127C30.7663 0.652009 30.3563 0.34528 29.742 0.34528Z" fill="black"/>
<path d="M42.4969 0.34528H34.0749C33.4605 0.34528 33.0505 0.652009 33.0505 1.14995V1.30265C33.0505 1.65054 33.2803 1.94665 33.584 2.23744L33.5854 2.23877C33.6209 2.2733 33.6578 2.30649 33.6946 2.34101C33.8507 2.50301 34.1132 2.84957 34.1018 3.31963V24.5902C34.1132 25.0602 33.8507 25.4068 33.6946 25.5701C33.6578 25.6046 33.6209 25.6378 33.5854 25.6724L33.584 25.6737C33.2803 25.9645 33.0505 26.2606 33.0505 26.6085V26.7612C33.0505 27.2591 33.4605 27.5658 34.0749 27.5658H37.2458V27.5632H39.3229V27.5658H42.494C43.1084 27.5658 43.5185 27.2591 43.5185 26.7612V26.6085C43.5185 26.2606 43.2885 25.9645 42.9849 25.6737L42.9832 25.6724C42.948 25.6378 42.9112 25.6046 42.8743 25.5701C42.7181 25.4081 42.4572 25.0616 42.4668 24.5928V3.31963C42.4572 2.8509 42.7181 2.50434 42.8743 2.34234C42.9112 2.30782 42.948 2.27462 42.9832 2.2401L42.9849 2.23877C43.2885 1.94798 43.5185 1.65187 43.5185 1.30397V1.15127C43.521 0.652009 43.1109 0.34528 42.4969 0.34528Z" fill="black"/>
<path d="M84.1935 0.34528H75.7729C75.1585 0.34528 74.7485 0.652009 74.7485 1.14995V1.30265C74.7485 1.65054 74.9784 1.94665 75.2821 2.23744L75.2833 2.23877C75.3189 2.2733 75.3558 2.30649 75.3926 2.34101C75.5489 2.50301 75.8111 2.8509 75.7997 3.32095V24.5915C75.8111 25.0616 75.5489 25.4094 75.3926 25.5714C75.3558 25.606 75.3189 25.6392 75.2833 25.6737L75.2821 25.675C74.9784 25.9658 74.7485 26.2619 74.7485 26.6098V26.7625C74.7485 27.2605 75.1585 27.5672 75.7729 27.5672H78.9439V27.5645H81.0209V27.5672H84.1918C84.8063 27.5672 85.2163 27.2605 85.2163 26.7625V26.6098C85.2163 26.2619 84.9863 25.9658 84.6827 25.675L84.6814 25.6737C84.6458 25.6392 84.609 25.606 84.5721 25.5714C84.4163 25.4094 84.155 25.0629 84.165 24.5942V3.31963C84.155 2.8509 84.4163 2.50434 84.5721 2.34234C84.609 2.30782 84.6458 2.27462 84.6814 2.2401L84.6827 2.23877C84.9863 1.94798 85.2163 1.65187 85.2163 1.30397V1.15127C85.218 0.652009 84.8079 0.34528 84.1935 0.34528Z" fill="black"/>
<path d="M113.111 0.825888H113.161C113.297 0.825888 113.331 0.521812 113.52 0.521812H113.598V1.76334C113.598 1.88417 113.483 1.92002 113.483 1.99703V2.00633C113.483 2.0382 113.507 2.05812 113.545 2.05812H114.185C114.225 2.05812 114.25 2.0382 114.25 2.00633V1.99703C114.25 1.92135 114.133 1.88417 114.133 1.76334V0.521812H114.211C114.399 0.521812 114.433 0.825888 114.57 0.825888H114.619C114.669 0.825888 114.7 0.796673 114.693 0.7502L114.64 0.396994C114.632 0.338571 114.606 0.315996 114.544 0.315996H113.185C113.122 0.315996 113.095 0.338571 113.088 0.396994L113.036 0.7502C113.03 0.795344 113.061 0.825888 113.111 0.825888Z" fill="black"/>
<path d="M116.894 1.76332L116.659 0.609436C116.635 0.488604 116.767 0.452749 116.767 0.375735V0.36644C116.767 0.334572 116.742 0.314656 116.702 0.314656H116.298C116.224 0.314656 116.174 0.349177 116.15 0.41557L115.825 1.35833L115.479 0.410259C115.455 0.346525 115.404 0.314656 115.33 0.314656H114.937C114.897 0.314656 114.871 0.334572 114.871 0.36644V0.375735C114.871 0.451421 114.998 0.488604 114.98 0.609436L114.794 1.76332C114.775 1.88416 114.686 1.92 114.686 1.99702V2.00631C114.686 2.03818 114.712 2.0581 114.751 2.0581H115.1C115.14 2.0581 115.166 2.03818 115.166 2.00631V1.99702C115.166 1.92133 115.053 1.88416 115.07 1.76332L115.191 0.95998L115.632 1.98109C115.656 2.03287 115.693 2.05544 115.75 2.05544C115.808 2.05544 115.834 2.03021 115.852 1.97976L116.22 1.01044L116.359 1.76465C116.38 1.88282 116.264 1.92133 116.264 1.99835V2.00764C116.264 2.03951 116.289 2.05943 116.329 2.05943H116.935C116.974 2.05943 117 2.03951 117 2.00764V1.99835C117.001 1.92 116.917 1.88283 116.894 1.76332Z" fill="black"/>
</svg>
